<?xml version="1.0" encoding="utf-8"?>
<!-- Generator: Adobe Illustrator 27.3.1, SVG Export Plug-In . SVG Version: 6.00 Build 0)  -->
<svg version="1.1" xmlns="http://www.w3.org/2000/svg" xmlns:xlink="http://www.w3.org/1999/xlink" x="0px" y="0px"
	 viewBox="0 0 986.68 862.27" style="enable-background:new 0 0 986.68 862.27;" xml:space="preserve">
<style type="text/css">
	.st0{display:none;}
	.st1{display:inline;}
	.st2{fill:#A24C6F;}
	.st3{fill:#F6E7F3;}
</style>
<g id="Layer_1" class="st0">
	<g class="st1">
		<path class="st2" d="M972.36,180.23c-11.16-34.51-28.22-65.52-52.31-92.65c-33.17-37.38-74.26-62.19-122.13-75.57
			c-15.78-4.42-32.15-7.03-48.41-9.35c-28.9-4.13-57.83-3.75-86.33,3.22c-28.8,7.04-55.6,19.17-80.8,34.6
			c-31.09,19.03-59.05,42.08-84.44,68.24c-4.63,4.76-4.73,4.78-9.41,0.01c-19.26-19.66-39.92-37.7-62.39-53.62
			c-22.87-16.2-47.11-29.84-73.38-39.86C331.14,7,309.01,1.45,285.84,0.59C247.9-0.84,210.87,3.92,174.8,16.31
			c-30.4,10.44-57.99,25.64-82.61,46.22c-26.55,22.19-47.37,48.98-62.74,79.91c-10.16,20.45-17.36,41.94-22.36,64.31
			c-5.1,22.76-7.2,45.78-7.09,68.91c0.12,25.97,3.15,51.69,9.59,77.06c6.37,25.13,15.39,49.15,27.11,72.14
			c17.69,34.73,40.33,66.13,65.95,95.42c35.52,40.6,75.47,76.6,116.53,111.38c46.99,39.81,94.71,78.78,141.54,118.78
			c34.07,29.11,66.53,60.02,95.47,94.33c19.34,22.93,54.24,23.64,73.81,0.25c6.94-8.29,14.23-16.31,21.69-24.14
			c31.38-32.95,65.01-63.53,99.81-92.79c42.81-35.99,85.96-71.59,128.75-107.62c31.48-26.51,61.6-54.53,89.65-84.66
			c40.78-43.8,75.63-91.61,96.16-148.48c5.8-16.05,11.18-32.5,14.29-49.22c3.84-20.71,5.11-41.9,6.33-52.65
			C986.34,242.81,982.36,211.13,972.36,180.23z M127.6,320.48c-26.51,0-48-21.49-48-48c0-13.26,5.37-25.26,14.06-33.94
			c8.69-8.69,20.69-14.06,33.94-14.06s25.25,5.37,33.94,14.06c8.69,8.68,14.06,20.68,14.06,33.94s-5.37,25.26-14.06,33.94
			C152.85,315.11,140.85,320.48,127.6,320.48z M198.92,446.42c-26.51,0-48-21.49-48-48c0-13.26,5.37-25.26,14.06-33.94
			c8.69-8.69,20.69-14.06,33.94-14.06s25.25,5.37,33.94,14.06c8.69,8.68,14.06,20.68,14.06,33.94s-5.37,25.26-14.06,33.94
			C224.17,441.05,212.17,446.42,198.92,446.42z M338.24,524.36c0,26.5-21.49,47.99-48,47.99s-48-21.49-48-47.99v-0.01
			c0-26.5,21.49-48,48-48c13.25,0,25.25,5.37,33.94,14.06s14.06,20.69,14.06,33.94V524.36z M751.29,524.36
			c0,17.39-14.1,31.49-31.5,31.49H402.31c-17.4,0-31.5-14.1-31.5-31.49v-0.01c0-17.39,14.1-31.5,31.5-31.5h317.48
			c17.4,0,31.5,14.11,31.5,31.5L751.29,524.36L751.29,524.36z M831.97,421.05c-5.79,5.79-13.79,9.37-22.63,9.37H319.03
			c-17.68,0-32-14.33-32-32c0-8.84,3.58-16.84,9.37-22.63s13.79-9.37,22.63-9.37h490.31c17.68,0,32,14.33,32,32
			C841.34,407.26,837.76,415.26,831.97,421.05z M895.16,295.11c-5.79,5.79-13.79,9.37-22.63,9.37H249.52c-17.68,0-32-14.32-32-32
			c0-8.84,3.58-16.84,9.37-22.63c5.79-5.79,13.79-9.37,22.63-9.37h623.01c17.68,0,32,14.33,32,32
			C904.53,281.32,900.95,289.32,895.16,295.11z"/>
	</g>
</g>
<g id="Layer_2">
	<g>
		<path class="st3" d="M972.36,180.23c-11.16-34.51-28.22-65.52-52.31-92.65c-33.17-37.38-74.26-62.19-122.13-75.57
			c-15.78-4.42-32.15-7.03-48.41-9.35c-28.9-4.13-57.83-3.75-86.33,3.22c-28.8,7.04-55.6,19.17-80.8,34.6
			c-31.09,19.03-59.05,42.08-84.44,68.24c-4.63,4.76-4.73,4.78-9.41,0.01c-19.26-19.66-39.92-37.7-62.39-53.62
			c-22.87-16.2-47.11-29.84-73.38-39.86C331.14,7,309.01,1.45,285.84,0.59C247.9-0.84,210.87,3.92,174.8,16.31
			c-30.4,10.44-57.99,25.64-82.61,46.22c-26.55,22.19-47.37,48.98-62.74,79.91c-10.16,20.45-17.36,41.94-22.36,64.31
			c-5.1,22.76-7.2,45.78-7.09,68.91c0.12,25.97,3.15,51.69,9.59,77.06c6.37,25.13,15.39,49.15,27.11,72.14
			c17.69,34.73,40.33,66.13,65.95,95.42c35.52,40.6,75.47,76.6,116.53,111.38c46.99,39.81,94.71,78.78,141.54,118.78
			c34.07,29.11,66.53,60.02,95.47,94.33c19.34,22.93,54.24,23.64,73.81,0.25c6.94-8.29,14.23-16.31,21.69-24.14
			c31.38-32.95,65.01-63.53,99.81-92.79c42.81-35.99,85.96-71.59,128.75-107.62c31.48-26.51,61.6-54.53,89.65-84.66
			c40.78-43.8,75.63-91.61,96.16-148.48c5.8-16.05,11.18-32.5,14.29-49.22c3.84-20.71,5.11-41.9,6.33-52.65
			C986.34,242.81,982.36,211.13,972.36,180.23z M127.6,320.48c-26.51,0-48-21.49-48-48c0-13.26,5.37-25.26,14.06-33.94
			c8.69-8.69,20.69-14.06,33.94-14.06s25.25,5.37,33.94,14.06c8.69,8.68,14.06,20.68,14.06,33.94s-5.37,25.26-14.06,33.94
			C152.85,315.11,140.85,320.48,127.6,320.48z M198.92,446.42c-26.51,0-48-21.49-48-48c0-13.26,5.37-25.26,14.06-33.94
			c8.69-8.69,20.69-14.06,33.94-14.06s25.25,5.37,33.94,14.06c8.69,8.68,14.06,20.68,14.06,33.94s-5.37,25.26-14.06,33.94
			C224.17,441.05,212.17,446.42,198.92,446.42z M338.24,524.36c0,26.5-21.49,47.99-48,47.99s-48-21.49-48-47.99v-0.01
			c0-26.5,21.49-48,48-48c13.25,0,25.25,5.37,33.94,14.06s14.06,20.69,14.06,33.94V524.36z M751.29,524.36
			c0,17.39-14.1,31.49-31.5,31.49H402.31c-17.4,0-31.5-14.1-31.5-31.49v-0.01c0-17.39,14.1-31.5,31.5-31.5h317.48
			c17.4,0,31.5,14.11,31.5,31.5L751.29,524.36L751.29,524.36z M831.97,421.05c-5.79,5.79-13.79,9.37-22.63,9.37H319.03
			c-17.68,0-32-14.33-32-32c0-8.84,3.58-16.84,9.37-22.63s13.79-9.37,22.63-9.37h490.31c17.68,0,32,14.33,32,32
			C841.34,407.26,837.76,415.26,831.97,421.05z M895.16,295.11c-5.79,5.79-13.79,9.37-22.63,9.37H249.52c-17.68,0-32-14.32-32-32
			c0-8.84,3.58-16.84,9.37-22.63c5.79-5.79,13.79-9.37,22.63-9.37h623.01c17.68,0,32,14.33,32,32
			C904.53,281.32,900.95,289.32,895.16,295.11z"/>
	</g>
</g>
</svg>
