<?xml version="1.0" encoding="utf-8"?>
<!-- Generator: Adobe Illustrator 27.3.1, SVG Export Plug-In . SVG Version: 6.00 Build 0)  -->
<svg version="1.1" id="Layer_1" xmlns="http://www.w3.org/2000/svg" xmlns:xlink="http://www.w3.org/1999/xlink" x="0px" y="0px"
	 viewBox="0 0 1000 239.44" style="enable-background:new 0 0 1000 239.44;" xml:space="preserve">
<style type="text/css">
	.st0{fill:#FFFFFF;}
	.st1{fill:#F6E7F3;}
</style>
<g>
	<path class="st0" d="M36.34,50.18l0.8,65.35c-1.06,2.48-1.59,5.58-1.59,9.3v5.45l-1.06,43.3c0,12.49,3.06,18.73,9.17,18.73
		l11.29-0.4c9.74,0,14.61,2.66,14.61,7.97c0,1.95-0.84,3.56-2.52,4.85c-1.68,1.28-3.59,2.06-5.71,2.32
		c-6.64-2.13-14.74-3.19-24.31-3.19c-2.92,1.68-5.74,2.52-8.44,2.52c-2.7,0-4.8-0.93-6.31-2.79c-1.51-1.86-2.26-3.9-2.26-6.11
		c0-13.46,0.57-33.72,1.73-60.77c1.15-27.05,1.73-47.31,1.73-60.77v-1.99c-1.06-11.33-1.59-19.84-1.59-25.5
		c0-17.18,3.14-25.77,9.43-25.77c1.86,0,3.47,0.66,4.85,1.99c1.37,1.33,2.06,2.92,2.06,4.78L36.34,50.18z"/>
	<path class="st0" d="M79.91,119.52l0.27-10.36c0-0.88-0.13-1.33-0.4-1.33v-4.91c0-28.51,1.64-48.79,4.92-60.84
		c2.74-10.18,5.4-16.47,7.97-18.86c2.57-2.39,5.09-3.59,7.57-3.59c21.07,0,35.6,10.63,43.57,31.88c4.6,12.22,6.91,27.28,6.91,45.16
		v1.99l0.53,30.82c0,52.16-12.09,78.24-36.26,78.24c-10.01,0-17.67-5.53-22.98-16.6c-5.05-10.63-8.15-21.08-9.3-31.35
		C80.84,144.27,79.91,130.86,79.91,119.52z M95.98,82.33l-1.33,25.11c0,26.3,2.13,49.24,6.38,68.81
		c4.52,11.42,8.81,18.15,12.89,20.19c3.27,0,6.24-1.33,8.9-3.99c2.66-2.66,4.76-6.22,6.31-10.69c1.55-4.47,2.86-9.19,3.92-14.15
		c0.97-4.87,1.73-10.1,2.26-15.67c0.88-9.65,1.33-17.89,1.33-24.71c0-6.82-0.6-17.27-1.79-31.35c-1.2-14.08-1.79-24.57-1.79-31.48
		v-4.78c-0.18-6.64-2.35-12.55-6.51-17.73c-4.16-5.18-9.48-7.77-15.94-7.77c-6.2,0-10.32,3.5-12.35,10.49
		c-1.68,5.84-2.52,13.06-2.52,21.65L95.98,82.33z"/>
	<path class="st0" d="M201.19,169.86c3.98-20.01,8.88-48.93,14.68-86.74c5.8-37.81,9.23-59.78,10.29-65.89h6.11
		c1.59,0,3.03,0.58,4.32,1.73c1.28,1.15,1.93,2.57,1.93,4.25c0,10.18-2.17,23-6.51,38.46c-4.34,15.45-6.89,25.42-7.64,29.89
		c-0.75,4.47-1.53,11.71-2.32,21.72c-0.8,10.01-1.73,19.84-2.79,29.49c-1.06,9.65-2.48,19.48-4.25,29.49
		c-1.77,10.01-4.27,18.11-7.51,24.31c-3.23,6.2-7.06,9.3-11.49,9.3l-5.05-4.12c0-22.05-2.1-44.54-6.31-67.48
		c-4.21-22.93-8.33-42.2-12.35-57.78c-4.03-15.59-6.75-25.46-8.17-29.62c-3.19-9.83-4.78-15.94-4.78-18.33s0.68-4.21,2.06-5.45
		c1.37-1.24,2.9-1.86,4.58-1.86c5.05,0,9.87,8.68,14.48,26.04c4.6,17.45,8.06,33.76,10.36,48.95c2.3,15.19,4.03,26.81,5.18,34.87
		c1.15,8.06,2.24,16.14,3.25,24.24C200.28,163.42,200.92,168.27,201.19,169.86z"/>
	<path class="st0" d="M255.52,65.32l-1.46-22.98c0-12.84,3.81-19.26,11.42-19.26c4.87,0,11.51,1.13,19.93,3.39
		c8.41,2.26,12.62,5.16,12.62,8.7c0,3.72-2.66,6.55-7.97,8.5c-8.41-2.83-15.28-4.56-20.59-5.18c0.27,3.9,0.4,7.79,0.4,11.69
		l-1.2,39.05c0,0.18,0.27,1.59,0.8,4.25l9.7-0.4c8.77,0,13.15,2.48,13.15,7.44c0,1.95-0.8,3.65-2.39,5.11
		c-1.59,1.46-3.61,2.19-6.04,2.19c-2.44,0-5.07-0.18-7.9-0.53h-6.91c0.53,6.91,0.8,13.77,0.8,20.59l-1.2,49.28
		c0,10.18,0.18,15.28,0.53,15.28l20.06-0.66c6.91,0,10.36,2.21,10.36,6.64c0,2.75-1.2,4.74-3.59,5.98c-2.39,1.24-5.09,1.86-8.1,1.86
		h-22.98c-2.39,0-4.56-0.82-6.51-2.46c-1.95-1.64-2.97-3.61-3.06-5.91v-7.17l-1.73-45.96L255.52,65.32z"/>
	<path class="st0" d="M654.55,191.25l11.29,1.99c3.45,0,6.46-1.5,9.03-4.52c2.57-3.01,4.47-6.77,5.71-11.29
		c2.39-8.68,3.59-16.36,3.59-23.05c0-6.69-1.11-13.3-3.32-19.86c-2.21-6.55-4.94-12.64-8.17-18.26c-3.23-5.62-6.44-11.36-9.63-17.2
		c-7.62-13.81-11.42-27.36-11.42-40.65c0-8.15,1.37-15.36,4.12-21.65c5.13-11.69,11.96-17.53,20.46-17.53c3.19,0,6.22,1.02,9.1,3.06
		c2.88,2.04,4.32,4.25,4.32,6.64c0,4.16-2.21,6.24-6.64,6.24c-1.95,0-3.85-0.53-5.71-1.59c-5.76,0.27-9.65,6.69-11.69,19.26
		c-0.44,2.75-0.66,5.96-0.66,9.63c0,3.68,0.8,8.21,2.39,13.62c1.59,5.4,3.61,10.21,6.04,14.41c2.43,4.21,5.05,8.86,7.84,13.95
		c2.79,5.09,5.42,10.03,7.9,14.81c5.67,11.07,8.46,23.73,8.37,37.99c0.09,10.98-2.44,21.48-7.57,31.48
		c-2.48,4.96-6,9.01-10.56,12.15c-4.56,3.14-9.76,4.76-15.61,4.85v0.66c-7.44-1.06-11.51-4.56-12.22-10.49L654.55,191.25z"/>
	<path class="st0" d="M710.35,136.92l-0.13-15.94v-6.51c0-26.74,1.33-45.34,3.98-55.79c3.19-12.93,7.62-21.87,13.28-26.83
		c7.7-6.91,17.45-10.36,29.22-10.36c2.83,0,4.94,0.66,6.31,1.99c1.37,1.33,2.06,2.92,2.06,4.78c0,1.86-0.55,3.52-1.66,4.98
		c-1.11,1.46-2.5,2.24-4.18,2.32h-12.75c-3.72,0-6.95,2.39-9.7,7.17c-2.66,4.78-4.61,10.63-5.84,17.53
		c-2.3,13.11-3.41,23.96-3.32,32.54v1.33l-1.2,52.47c0,11.07,0.6,18.73,1.79,22.98c1.2,4.25,2.43,7.68,3.72,10.29
		c1.28,2.61,2.81,4.76,4.58,6.44c4.07,3.9,9.3,5.84,15.67,5.84c2.13,0,4.07-0.8,5.85-2.39c2.13,0,4.03,0.49,5.71,1.46
		c1.68,0.98,2.52,2.48,2.52,4.52c0,7.17-5,10.76-15.01,10.76c-4.07,0-8.35-0.6-12.82-1.79c-4.47-1.2-7.82-2.5-10.03-3.92
		C716.37,193.02,710.35,171.72,710.35,136.92z"/>
	<path class="st0" d="M796.55,38.89l-1.06,67.88c3.28,0.89,8.24,1.33,14.88,1.33h9.83c0.44-0.8,0.66-3.72,0.66-8.77
		c0-5.05-0.6-16.14-1.79-33.28c-1.2-17.14-1.79-30.04-1.79-38.72c0-2.04,0.8-3.74,2.39-5.11c1.59-1.37,3.1-2.06,4.52-2.06
		c1.42,0,2.57,0.13,3.45,0.4c0.88,0.27,1.86,0.62,2.92,1.06c1.06,0.44,1.9,0.75,2.52,0.93c0,23.56,0.86,57.98,2.59,103.28
		s2.59,68.7,2.59,70.2c0,1.51-0.95,2.99-2.86,4.45c-1.9,1.46-4.03,2.19-6.38,2.19c-2.35,0-4.23-1.73-5.65-5.18
		c-1.42-3.45-2.37-8.57-2.86-15.34c-0.49-6.77-0.82-12.64-1-17.6c-0.09-2.13-0.09-4.56,0-7.31c0-3.72,0.04-7.97,0.13-12.75
		c0.18-8.41,0.27-13.28,0.27-14.61v-1.06l0.4-7.84l-1.59-2.52v-0.27c-1.51,0.36-3.14,0.53-4.91,0.53l-17.53-2.52v31.22l1.59,44.77
		c0,2.57-0.66,4.85-1.99,6.84c-1.33,1.99-3.23,2.99-5.71,2.99c-3.63,0-6.13-3.3-7.5-9.9c-1.37-6.6-2.06-15.61-2.06-27.03l0.8-41.44
		c0-8.59-0.13-13.33-0.4-14.21v-1.33c0.71-9.47,1.06-14.79,1.06-15.94l-1.86-61.37c0-2.13,0.75-4.01,2.26-5.65
		c1.51-1.64,3.32-2.46,5.45-2.46C793.68,22.68,796.55,28.09,796.55,38.89z"/>
	<path class="st0" d="M858.46,65.32l-1.46-22.98c0-12.84,3.81-19.26,11.42-19.26c4.87,0,11.51,1.13,19.93,3.39
		c8.41,2.26,12.62,5.16,12.62,8.7c0,3.72-2.66,6.55-7.97,8.5c-8.41-2.83-15.28-4.56-20.59-5.18c0.27,3.9,0.4,7.79,0.4,11.69
		l-1.2,39.05c0,0.18,0.27,1.59,0.8,4.25l9.7-0.4c8.77,0,13.15,2.48,13.15,7.44c0,1.95-0.8,3.65-2.39,5.11
		c-1.59,1.46-3.61,2.19-6.04,2.19c-2.44,0-5.07-0.18-7.9-0.53h-6.91c0.53,6.91,0.8,13.77,0.8,20.59l-1.2,49.28
		c0,10.18,0.18,15.28,0.53,15.28l20.06-0.66c6.91,0,10.36,2.21,10.36,6.64c0,2.75-1.2,4.74-3.59,5.98c-2.39,1.24-5.09,1.86-8.1,1.86
		h-22.98c-2.39,0-4.56-0.82-6.51-2.46c-1.95-1.64-2.97-3.61-3.06-5.91v-7.17l-1.73-45.96L858.46,65.32z"/>
	<path class="st0" d="M917.17,168.67l0.8-85.68c0-5.84-0.53-14.77-1.59-26.77c-1.06-12-1.59-19.64-1.59-22.91
		c0-3.28,1.02-5.82,3.06-7.64c2.04-1.81,4.21-2.72,6.51-2.72c18.68,0,33.87,10.94,45.56,32.81c6.73,12.49,10.1,25.68,10.1,39.58
		l-0.53,13.68v15.01c0,18.24-0.82,30.42-2.46,36.53c-1.64,6.11-3.34,11.2-5.11,15.28c-1.77,4.07-3.9,7.7-6.38,10.89
		c-5.76,7.26-13.02,13.11-21.79,17.53h-19.66C919.47,204.27,917.17,192.4,917.17,168.67z M936.16,183.94v6.51
		c15.76,0,25.24-15.94,28.43-47.82c0.71-7.35,1.06-14.43,1.06-21.25c0-54.73-10.54-83.33-31.62-85.81
		c-1.33,7.17-1.99,17.03-1.99,29.56c0,12.53,0.68,32.13,2.06,58.78C935.48,150.56,936.16,170.57,936.16,183.94z"/>
	<g>
		<path class="st1" d="M603.58,52.83c-2.97-9.2-7.52-17.47-13.94-24.7c-8.84-9.96-19.8-16.58-32.56-20.15
			c-4.21-1.18-8.57-1.87-12.9-2.49c-7.7-1.1-15.42-1-23.01,0.86c-7.68,1.88-14.82,5.11-21.54,9.22
			c-8.29,5.07-15.74,11.22-22.51,18.19c-1.23,1.27-1.26,1.27-2.51,0c-5.13-5.24-10.64-10.05-16.63-14.29
			c-6.1-4.32-12.56-7.95-19.56-10.63c-5.76-2.2-11.66-3.68-17.84-3.91c-10.11-0.38-19.99,0.89-29.6,4.19
			c-8.1,2.78-15.46,6.83-22.02,12.32c-7.08,5.92-12.63,13.06-16.72,21.3c-2.71,5.45-4.63,11.18-5.96,17.14
			c-1.36,6.07-1.92,12.2-1.89,18.37c0.03,6.92,0.84,13.78,2.56,20.54c1.7,6.7,4.1,13.1,7.23,19.23
			c4.72,9.26,10.75,17.63,17.58,25.44c9.47,10.82,20.12,20.42,31.06,29.69c12.53,10.61,25.25,21,37.73,31.66
			c9.08,7.76,17.74,16,25.45,25.15c5.16,6.11,14.46,6.3,19.68,0.07c1.85-2.21,3.79-4.35,5.78-6.44
			c8.37-8.78,17.33-16.94,26.61-24.74c11.41-9.59,22.91-19.08,34.32-28.69c8.39-7.07,16.42-14.54,23.9-22.57
			c10.87-11.68,20.16-24.42,25.63-39.58c1.55-4.28,2.98-8.66,3.81-13.12c1.02-5.52,1.36-11.17,1.69-14.04
			C607.3,69.52,606.24,61.07,603.58,52.83z M378.38,90.22c-7.07,0-12.8-5.73-12.8-12.8c0-3.53,1.43-6.73,3.75-9.05
			c2.32-2.32,5.52-3.75,9.05-3.75c3.53,0,6.73,1.43,9.05,3.75c2.32,2.31,3.75,5.51,3.75,9.05c0,3.53-1.43,6.73-3.75,9.05
			C385.12,88.79,381.92,90.22,378.38,90.22z M397.4,123.79c-7.07,0-12.8-5.73-12.8-12.8c0-3.53,1.43-6.73,3.75-9.05
			c2.32-2.32,5.52-3.75,9.05-3.75s6.73,1.43,9.05,3.75c2.32,2.31,3.75,5.51,3.75,9.05s-1.43,6.73-3.75,9.05
			C404.13,122.36,400.93,123.79,397.4,123.79z M434.54,144.57c0,7.06-5.73,12.79-12.8,12.79c-7.07,0-12.8-5.73-12.8-12.79v0
			c0-7.06,5.73-12.8,12.8-12.8c3.53,0,6.73,1.43,9.05,3.75C433.1,137.84,434.54,141.04,434.54,144.57L434.54,144.57z M544.64,144.57
			c0,4.64-3.76,8.39-8.4,8.39h-84.63c-4.64,0-8.4-3.76-8.4-8.39v0c0-4.64,3.76-8.4,8.4-8.4h84.63
			C540.89,136.17,544.64,139.93,544.64,144.57L544.64,144.57z M566.15,117.03c-1.54,1.54-3.68,2.5-6.03,2.5h-130.7
			c-4.71,0-8.53-3.82-8.53-8.53c0-2.36,0.95-4.49,2.5-6.03c1.54-1.54,3.68-2.5,6.03-2.5h130.7c4.71,0,8.53,3.82,8.53,8.53
			C568.65,113.36,567.7,115.49,566.15,117.03z M583,83.46c-1.54,1.54-3.68,2.5-6.03,2.5H410.89c-4.71,0-8.53-3.82-8.53-8.53
			c0-2.36,0.95-4.49,2.5-6.03c1.54-1.54,3.68-2.5,6.03-2.5h166.08c4.71,0,8.53,3.82,8.53,8.53C585.49,79.78,584.54,81.92,583,83.46z
			"/>
	</g>
</g>
</svg>
